<?xml version="1.0" encoding="UTF-8" standalone="no"?>
<!-- Created with Inkscape (http://www.inkscape.org/) -->

<svg
   width="550mm"
   height="162.54601mm"
   viewBox="0 0 550 162.54601"
   version="1.1"
   id="svg2759"
   inkscape:version="1.2 (dc2aedaf03, 2022-05-15)"
   sodipodi:docname="NECTEC.svg"
   xmlns:inkscape="http://www.inkscape.org/namespaces/inkscape"
   xmlns:sodipodi="http://sodipodi.sourceforge.net/DTD/sodipodi-0.dtd"
   xmlns="http://www.w3.org/2000/svg"
   xmlns:svg="http://www.w3.org/2000/svg">
  <sodipodi:namedview
     id="namedview2761"
     pagecolor="#ffffff"
     bordercolor="#111111"
     borderopacity="1"
     inkscape:showpageshadow="0"
     inkscape:pageopacity="0"
     inkscape:pagecheckerboard="1"
     inkscape:deskcolor="#d1d1d1"
     inkscape:document-units="mm"
     showgrid="false"
     inkscape:zoom="0.32567287"
     inkscape:cx="916.56391"
     inkscape:cy="411.45583"
     inkscape:window-width="1366"
     inkscape:window-height="697"
     inkscape:window-x="-8"
     inkscape:window-y="-8"
     inkscape:window-maximized="1"
     inkscape:current-layer="layer1" />
  <defs
     id="defs2756" />
  <g
     inkscape:label="Layer 1"
     inkscape:groupmode="layer"
     id="layer1">
    <g
       id="g1736"
       transform="matrix(1.2081941,0,0,-1.2081941,434.57974,48.402701)">
      <path
         d="m 0,0 c -0.172,-0.629 -0.256,-1.267 -0.256,-1.878 0,-2.921 1.909,-5.601 4.849,-6.459 0,0 24.36,-7.042 31.661,-9.145 v -31.899 c 0,-3.708 3.01,-6.72 6.719,-6.72 3.711,0 6.726,3.012 6.726,6.72 v 36.95 c 0,2.993 -1.981,5.626 -4.855,6.454 L 8.334,4.579 C 4.765,5.617 1.039,3.559 0,0"
         style="fill:#cfd0d2;fill-opacity:1;fill-rule:nonzero;stroke:none"
         id="path1738" />
    </g>
    <g
       id="g1740"
       transform="matrix(1.2081941,0,0,-1.2081941,440.68328,44.352835)">
      <path
         d="m 0,0 c -0.175,-0.623 -0.27,-1.252 -0.27,-1.869 0,-2.912 1.919,-5.608 4.859,-6.458 0,0 24.35,-7.043 31.651,-9.145 v -31.895 c 0,-3.713 3.01,-6.722 6.719,-6.722 3.714,0 6.733,3.009 6.733,6.722 v 36.947 c 0,2.987 -1.997,5.626 -4.869,6.462 L 8.32,4.59 C 4.759,5.622 1.04,3.564 0,0"
         style="fill:#b44b34;fill-opacity:1;fill-rule:nonzero;stroke:none"
         id="path1742" />
    </g>
    <g
       id="g1744"
       transform="matrix(1.2081941,0,0,-1.2081941,440.68328,44.352835)">
      <path
         d="m 0,0 c -0.175,-0.623 -0.27,-1.252 -0.27,-1.869 0,-2.912 1.919,-5.608 4.859,-6.458 0,0 24.35,-7.043 31.651,-9.145 v -31.895 c 0,-3.713 3.01,-6.722 6.719,-6.722 v 38.608 c 0,2.992 0,5.379 -5.263,6.727 z"
         style="fill:#9e0a0e;fill-opacity:1;fill-rule:nonzero;stroke:none"
         id="path1746" />
    </g>
    <g
       id="g1748"
       transform="matrix(1.2081941,0,0,-1.2081941,474.53156,31.865547)">
      <path
         d="m 0,0 c -0.113,-0.38 -0.163,-0.763 -0.163,-1.143 0,-1.771 1.168,-3.415 2.963,-3.93 0,0 21.883,-6.332 26.682,-7.714 v -26.932 c 0,-2.265 1.839,-4.091 4.099,-4.091 2.244,0 4.101,1.826 4.101,4.091 v 30.004 c 0,1.826 -1.215,3.429 -2.963,3.933 L 5.069,2.79 C 2.897,3.419 0.628,2.172 0,0"
         style="fill:#cfd0d2;fill-opacity:1;fill-rule:nonzero;stroke:none"
         id="path1750" />
    </g>
    <g
       id="g1752"
       transform="matrix(1.2081941,0,0,-1.2081941,479.47283,28.570195)">
      <path
         d="m 0,0 c -0.104,-0.38 -0.158,-0.762 -0.158,-1.148 0,-1.772 1.17,-3.405 2.957,-3.92 0,0 21.893,-6.338 26.692,-7.714 v -26.932 c 0,-2.265 1.836,-4.09 4.101,-4.09 2.258,0 4.09,1.825 4.09,4.09 V -9.71 c 0,1.822 -1.209,3.424 -2.959,3.932 L 5.069,2.793 C 2.898,3.421 0.637,2.167 0,0"
         style="fill:#cb7c64;fill-opacity:1;fill-rule:nonzero;stroke:none"
         id="path1754" />
    </g>
    <g
       id="g1756"
       transform="matrix(1.2081941,0,0,-1.2081941,479.47283,28.570195)">
      <path
         d="m 0,0 c -0.104,-0.38 -0.158,-0.762 -0.158,-1.148 0,-1.772 1.17,-3.405 2.957,-3.92 0,0 21.893,-6.338 26.692,-7.714 v -26.932 c 0,-2.265 1.836,-4.09 4.101,-4.09 v 31.327 c 0,1.822 0,2.983 -3.466,3.915 z"
         style="fill:#b44b34;fill-opacity:1;fill-rule:nonzero;stroke:none"
         id="path1758" />
    </g>
    <g
       id="g1760"
       transform="matrix(1.2081941,0,0,-1.2081941,379.59868,85.76236)">
      <path
         d="m 0,0 h -38.653 c -5.072,0 -12.972,-6.087 -12.972,-12.945 V -30.72 c 0,-4.679 5.218,-11.961 11.784,-11.961 H 0 c 0,0 1.128,0.009 1.128,1.179 v 4.83 c 0,1.128 -1.128,1.174 -1.128,1.174 h -38.263 c -2.032,0 -5.158,1.811 -5.158,5.397 v 5.146 l 41.91,-0.025 c 0,0 1.123,0.008 1.123,1.168 v 4.846 c 0,1.132 -1.123,1.167 -1.123,1.167 h -41.91 v 2.62 c 0,3.898 4.471,7.989 7.271,7.989 H 0 c 0,0 1.128,0.016 1.128,1.176 v 4.832 C 1.128,-0.044 0,0 0,0"
         style="fill:#9e0a0e;fill-opacity:1;fill-rule:nonzero;stroke:none"
         id="path1762" />
    </g>
    <g
       id="g1764"
       transform="matrix(1.2081941,0,0,-1.2081941,450.91282,85.76236)">
      <path
         d="m 0,0 h -35.187 c -11.286,0 -16.186,-5.205 -16.186,-12.005 v -18.814 c 0,-7.16 5.381,-12.031 16.186,-12.031 H 0 c 0,0 1.138,0.012 1.138,1.176 v 2.437 2.425 c 0,1.144 -1.138,1.188 -1.138,1.188 h -35.187 c -5.069,0 -8.92,1.357 -8.92,6.984 v 13.798 c 0,5.12 3.042,7.606 8.92,7.606 H 0 c 0,0 1.138,0.017 1.138,1.191 v 2.423 2.432 C 1.138,-0.044 0,0 0,0"
         style="fill:#9e0a0e;fill-opacity:1;fill-rule:nonzero;stroke:none"
         id="path1766" />
    </g>
    <g
       id="g1768"
       transform="matrix(1.2081941,0,0,-1.2081941,235.33632,85.76236)">
      <path
         d="m 0,0 h -35.188 c -11.294,0 -16.187,-5.205 -16.187,-12.005 v -18.814 c 0,-7.16 5.383,-12.031 16.187,-12.031 H 0 c 0,0 1.132,0.012 1.132,1.176 v 2.437 2.425 c 0,1.144 -1.132,1.188 -1.132,1.188 h -35.188 c -5.07,0 -8.931,1.357 -8.931,6.984 v 13.798 c 0,5.12 3.052,7.606 8.931,7.606 H 0 c 0,0 1.132,0.017 1.132,1.191 v 2.423 2.432 C 1.132,-0.044 0,0 0,0"
         style="fill:#9e0a0e;fill-opacity:1;fill-rule:nonzero;stroke:none"
         id="path1770" />
    </g>
    <g
       id="g1772"
       transform="matrix(1.2081941,0,0,-1.2081941,309.12811,85.74109)">
      <path
         d="m 0,0 h -53.135 c 0,0 -1.24,-0.206 -1.24,-1.177 v -5.786 c 0,-1.109 1.24,-1.172 1.24,-1.172 h 22.109 v -33.556 c 0,-0.556 0.649,-1.187 1.736,-1.187 h 2.082 3.347 c 1.132,0 1.733,0.566 1.733,1.187 V -8.135 H 0 c 0,0 1.25,0.009 1.25,1.172 v 5.786 C 1.25,-0.035 0,0 0,0"
         style="fill:#9e0a0e;fill-opacity:1;fill-rule:nonzero;stroke:none"
         id="path1774" />
    </g>
    <g
       id="g1776"
       transform="matrix(1.2081941,0,0,-1.2081941,82.999358,85.76236)">
      <path
         d="m 0,0 v -33.467 c -4.979,3.821 -34.414,30.474 -34.414,30.474 -1.038,0.804 -3.187,2.975 -7.091,2.975 -3.354,0 -6.5,-3.173 -6.5,-7.363 V -42.85 h 7.649 v 33.456 c 4.984,-4.243 30.837,-27.838 34.198,-30.387 2.792,-2.117 3.993,-3.069 7.283,-3.069 3.563,0 6.922,1.946 6.922,6.355 L 8.047,0 Z"
         style="fill:#9e0a0e;fill-opacity:1;fill-rule:nonzero;stroke:none"
         id="path1778" />
    </g>
    <g
       id="g1780"
       transform="matrix(1.2081941,0,0,-1.2081941,164.20087,85.76236)">
      <path
         d="m 0,0 h -38.655 c -5.07,0 -12.974,-6.087 -12.974,-12.945 V -30.72 c 0,-4.679 5.227,-11.961 11.787,-11.961 H 0 c 0,0 1.124,0.009 1.124,1.179 v 2.418 2.412 c 0,1.128 -1.124,1.174 -1.124,1.174 h -38.263 c -2.028,0 -5.155,1.811 -5.155,5.397 v 5.146 h 39.569 v -0.025 h 2.334 c 0,0 1.127,0.008 1.127,1.168 v 2.423 2.423 c 0,1.132 -1.127,1.167 -1.127,1.167 h -41.903 v 2.62 c 0,3.898 4.467,7.989 7.267,7.989 H -1.403 0 c 0,0 1.124,0.016 1.124,1.176 V -3.6 -1.182 C 1.124,-0.044 0,0 0,0"
         style="fill:#9e0a0e;fill-opacity:1;fill-rule:nonzero;stroke:none"
         id="path1782" />
    </g>
  </g>
</svg>
